<svg width="173" height="166" viewBox="0 0 173 166" fill="none" xmlns="http://www.w3.org/2000/svg">
<g clip-path="url(#clip0_58_172)">
<mask id="mask0_58_172" style="mask-type:luminance" maskUnits="userSpaceOnUse" x="0" y="0" width="173" height="166">
<path d="M172.596 0H0V165.977H172.596V0Z" fill="white"/>
</mask>
<g mask="url(#mask0_58_172)">
<path d="M114.36 0H57.6154V27.0778H114.36V0Z" fill="#449942"/>
<path d="M60.7588 23.9668V3.75806H64.6717V11.8993H71.6279V3.75806H75.5408V23.9668H71.6279V15.2193H64.6717V23.9668H60.7588Z" fill="white"/>
<path d="M83.5694 19.1022C83.9653 19.6324 84.4797 20.0635 85.0721 20.3615C85.6645 20.6594 86.318 20.8159 86.9814 20.8187C87.6449 20.8215 88.2998 20.6705 88.8944 20.3776C89.4895 20.0847 90.0076 19.6579 90.4079 19.131C91.2965 18.0051 91.7407 16.1912 91.7412 13.6891C91.7412 11.4939 91.2824 9.81942 90.3644 8.66581C89.979 8.12996 89.4714 7.69335 88.8826 7.39212C88.2943 7.09088 87.6422 6.93377 86.9805 6.93377C86.3189 6.93377 85.6667 7.09088 85.0784 7.39212C84.4897 7.69335 83.982 8.12996 83.5966 8.66581C82.6881 9.82059 82.2339 11.495 82.2343 13.6891C82.2343 16.1529 82.6786 17.9573 83.5676 19.1022H83.5694ZM90.263 23.7935C88.1548 24.6018 85.8207 24.6018 83.7125 23.7935C82.6664 23.3752 81.7153 22.7518 80.9156 21.9602C79.9967 21.0139 79.3119 19.8672 78.9156 18.6114C78.3957 17.023 78.1462 15.3594 78.1765 13.6891C78.1543 12.1468 78.4048 10.6127 78.9156 9.15659C79.3332 7.93157 80.0157 6.81292 80.9156 5.87989C81.7185 5.06789 82.6741 4.42058 83.727 3.97451C84.7601 3.54571 85.8682 3.32495 86.9878 3.32495C88.1073 3.32495 89.2155 3.54571 90.2485 3.97451C91.3014 4.42069 92.2566 5.06803 93.06 5.87989C93.9599 6.81292 94.6423 7.93157 95.0599 9.15659C95.5707 10.6127 95.8212 12.1468 95.799 13.6891C95.8293 15.3594 95.5798 17.023 95.0599 18.6114C94.6636 19.8672 93.9789 21.0139 93.06 21.9602C92.2602 22.7516 91.3091 23.375 90.263 23.7935Z" fill="white"/>
<path d="M98.4379 23.9668V3.75806H111.307V7.36676H102.351V12.7076H110.495V16.1431H102.351V23.9668H98.4379Z" fill="white"/>
<path d="M28.3726 16.845L0.00012207 65.7929L23.5434 79.3318L51.9159 30.3839L28.3726 16.845Z" fill="#449942"/>
<path d="M22.6363 74.6748L5.06543 64.5705L7.02187 61.1954L14.1004 65.266L17.5785 59.2652L10.5 55.1951L12.4564 51.8196L30.0272 61.9239L28.0708 65.299L20.4651 60.9252L16.987 66.926L24.5927 71.2998L22.6363 74.6748Z" fill="white"/>
<path d="M31.9257 58.6491L14.3549 48.5447L20.7749 37.4688L23.9129 39.2731L19.4489 46.9741L23.3899 49.2403L27.4477 42.2394L30.4598 43.9716L26.402 50.9725L30.7446 53.4697L35.2082 45.7687L38.3458 47.5731L31.9257 58.6491Z" fill="white"/>
<path d="M42.6205 40.1976L28.1872 31.8976L25.2168 37.0229L22.0788 35.2185L29.977 21.5925L33.115 23.3969L30.1441 28.5226L44.577 36.8226L42.6205 40.1976Z" fill="white"/>
<path d="M143.943 17.0645L120.4 30.6034L148.772 79.5513L172.316 66.0124L143.943 17.0645Z" fill="#449942"/>
<path d="M127.919 37.3982L141.823 20.9683L143.881 24.5188L133.912 36.0179L133.956 36.0928L148.866 33.1192L150.895 36.6192L129.702 40.4733L127.919 37.3982Z" fill="white"/>
<path d="M149.035 44.9566L140.805 46.5223L143.573 51.2975L149.063 45.0071L149.035 44.9566ZM139.005 56.5238L141.315 53.8624L137.445 47.1863L133.979 47.8458L132.037 44.4956L153.274 40.7173L154.941 43.5925L141.022 59.9972L139.005 56.5238Z" fill="white"/>
<path d="M141.831 61.3998L159.402 51.2954L161.358 54.6704L153.547 67.6965L153.576 67.7466L165.097 61.1214L167.068 64.5213L149.497 74.6256L147.57 71.3002L155.338 58.1993L155.309 58.1492L143.787 64.7748L141.831 61.3998Z" fill="white"/>
<path d="M149.048 86.4324L120.676 135.379L144.219 148.918L172.591 99.9713L149.048 86.4324Z" fill="#449942"/>
<path d="M151.127 105.123L148.319 108.176C146.441 106.718 145.265 105.052 144.789 103.178C144.314 101.305 144.636 99.4015 145.757 97.4682C146.319 96.418 147.105 95.5032 148.059 94.7883C149.015 94.0733 150.115 93.5753 151.284 93.3294C153.666 92.8206 156.438 93.4756 159.6 95.2948C162.378 96.8921 164.121 98.8891 164.83 101.286C165.189 102.39 165.309 103.557 165.182 104.711C165.056 105.865 164.685 106.979 164.095 107.98C163.158 109.693 161.601 110.985 159.741 111.594C157.816 112.199 155.731 112.044 153.917 111.162L155.332 107.508C156.347 107.954 157.465 108.113 158.564 107.966C159.071 107.877 159.55 107.67 159.963 107.364C160.375 107.057 160.711 106.659 160.942 106.201C161.272 105.628 161.461 104.986 161.494 104.328C161.527 103.669 161.403 103.012 161.132 102.409C160.592 101.032 159.41 99.8183 157.586 98.7695C155.444 97.5367 153.634 97.0126 152.156 97.1971C151.484 97.2516 150.835 97.4695 150.266 97.8308C149.698 98.1926 149.227 98.6874 148.895 99.2721C147.756 101.238 148.5 103.189 151.127 105.123Z" fill="white"/>
<path d="M150.352 119.278L144.876 112.962L142.108 117.738L150.323 119.329L150.352 119.278ZM135.28 116.411L138.746 117.071L142.615 110.394L140.308 107.733L142.25 104.383L156.154 120.813L154.487 123.688L133.264 119.884L135.28 116.411Z" fill="white"/>
<path d="M139.961 130.103L137.96 133.553C136.849 135.47 137.131 136.91 138.803 137.872C140.494 138.844 141.895 138.372 143.006 136.455L145.006 133.005L139.961 130.103ZM132.454 121.286L150.025 131.39L145.91 138.491C144.866 140.291 143.517 141.454 141.862 141.98C140.809 142.323 139.684 142.38 138.601 142.146C137.519 141.913 136.519 141.397 135.703 140.651C134.887 139.905 134.285 138.956 133.958 137.902C133.632 136.848 133.593 135.727 133.846 134.652L124.833 134.437L126.949 130.787L135.519 131.012L137.026 128.412L130.5 124.659L132.454 121.286Z" fill="white"/>
<path d="M114.533 138.899H57.7879V165.977H114.533V138.899Z" fill="#449942"/>
<path d="M105.212 142.01V158.61H111.153V162.219H95.3574V158.61H101.299V142.01H105.212Z" fill="white"/>
<path d="M92.0247 142.01V162.219H79.1842V158.61H88.1114V154.078H79.9962V150.613H88.1114V145.619H79.1842V142.01H92.0247Z" fill="white"/>
<path d="M76.5765 148.765L72.4608 149.66C72.2094 148.082 71.7986 146.942 71.2285 146.239C70.6583 145.537 69.7258 145.186 68.4319 145.185C67.5149 145.141 66.6032 145.346 65.7939 145.777C65.4837 145.949 65.2278 146.203 65.0539 146.511C64.88 146.82 64.7953 147.17 64.8089 147.523C64.7921 147.888 64.8705 148.251 65.0353 148.577C65.2002 148.903 65.4466 149.182 65.7509 149.386C66.3786 149.818 67.8128 150.381 70.0532 151.074C72.1596 151.728 73.6523 152.522 74.5313 153.456C75.4104 154.388 75.8841 155.628 75.8501 156.906C75.8555 157.674 75.6939 158.435 75.3759 159.135C75.0585 159.835 74.592 160.458 74.0096 160.962C72.7827 162.088 71.1162 162.651 69.0098 162.651C67.2599 162.697 65.5367 162.214 64.068 161.265C63.3737 160.792 62.7854 160.181 62.3389 159.471C61.8928 158.76 61.598 157.966 61.4739 157.137L65.2704 156.184C65.87 158.089 67.1163 159.042 69.0098 159.042C69.8019 159.101 70.5913 158.898 71.2561 158.465C71.4929 158.287 71.6836 158.055 71.8122 157.789C71.9408 157.523 72.0038 157.23 71.9952 156.935C72.0002 156.65 71.9236 156.37 71.7746 156.127C71.6261 155.884 71.4105 155.689 71.1542 155.563C69.7539 154.914 68.3115 154.359 66.836 153.904C64.5947 153.134 63.0585 152.301 62.2275 151.406C61.358 150.404 60.9114 149.105 60.9812 147.783C60.9635 146.938 61.1365 146.1 61.4879 145.33C61.8389 144.561 62.3593 143.88 63.0101 143.337C64.3655 142.163 66.1725 141.576 68.4319 141.576C70.7317 141.576 72.5916 142.177 74.0114 143.38C75.4312 144.583 76.2862 146.378 76.5765 148.764" fill="white"/>
<path d="M23.5858 86.344L0.0425415 99.8829L28.415 148.831L51.9584 135.292L23.5858 86.344Z" fill="#449942"/>
<path d="M33.8736 123.479L22.0258 130.29L20.0693 126.915L31.7663 120.189C32.1928 119.972 32.5716 119.673 32.8808 119.309C33.1899 118.945 33.4232 118.523 33.567 118.069C33.8142 117.204 33.6331 116.247 33.0235 115.197C32.802 114.744 32.4913 114.341 32.1101 114.011C31.7289 113.68 31.2849 113.43 30.8044 113.273C30.3447 113.162 29.8671 113.146 29.4008 113.225C28.9344 113.304 28.4891 113.477 28.0921 113.733L16.3449 120.491L14.3884 117.116L26.2362 110.305C28.2108 109.169 30.0688 108.901 31.8102 109.5C33.5517 110.098 35.0021 111.398 36.1615 113.397C37.3209 115.398 37.723 117.294 37.368 119.088C37.0129 120.881 35.8481 122.346 33.8736 123.481" fill="white"/>
<path d="M24.5003 107.654L21.6644 104.551C22.9116 103.546 23.6978 102.621 24.023 101.778C24.3481 100.935 24.1874 99.9551 23.5407 98.8387C23.1205 98.0262 22.4869 97.3419 21.7074 96.8597C21.4027 96.6784 21.0534 96.5841 20.6983 96.5882C20.3432 96.5922 19.9962 96.6942 19.6957 96.8827C19.3703 97.051 19.0938 97.2995 18.8928 97.6049C18.6917 97.9103 18.5729 98.2617 18.5477 98.6262C18.4855 99.3849 18.7134 100.904 19.2315 103.182C19.7146 105.326 19.7708 107.01 19.4 108.234C19.0293 109.459 18.1881 110.488 17.0595 111.097C16.3941 111.486 15.6521 111.727 14.8845 111.803C14.1169 111.879 13.3419 111.788 12.6127 111.538C11.0198 111.042 9.69704 109.886 8.64454 108.069C7.72846 106.583 7.28631 104.855 7.37648 103.114C7.44102 102.278 7.67792 101.465 8.07238 100.725C8.46683 99.9844 9.01033 99.333 9.66896 98.8116L12.3957 101.611C11.0371 103.08 10.832 104.632 11.7803 106.264C12.1252 106.977 12.6963 107.557 13.4052 107.914C13.6782 108.029 13.9751 108.078 14.2708 108.056C14.5666 108.034 14.8528 107.941 15.1053 107.786C15.3551 107.648 15.5604 107.442 15.6971 107.192C15.8338 106.942 15.8964 106.659 15.8775 106.375C15.7423 104.843 15.5031 103.32 15.1615 101.819C14.7086 99.5008 14.6642 97.7597 15.0283 96.5954C15.4648 95.3441 16.3704 94.3097 17.5554 93.7084C18.2813 93.2704 19.0967 93.0007 19.9413 92.919C20.7859 92.8374 21.6382 92.9452 22.4352 93.2357C24.1332 93.8153 25.5469 95.0802 26.6764 97.0302C27.8261 99.015 28.2337 100.92 27.8992 102.746C27.5646 104.571 26.4324 106.206 24.5026 107.65" fill="white"/>
<path d="M26.8843 130.879L23.4958 132.828L30.0169 144.078L33.4053 142.129L31.1232 138.192L41.9167 131.985L44.1992 135.922L47.5877 133.974L41.0667 122.724L37.6778 124.672L39.9603 128.61L29.1668 134.817L26.8843 130.879Z" fill="white"/>
</g>
</g>
<defs>
<clipPath id="clip0_58_172">
<rect width="173" height="166" fill="white"/>
</clipPath>
</defs>
</svg>
